<svg id="Layer_1" data-name="Layer 1" xmlns="http://www.w3.org/2000/svg" viewBox="0 0 850 425.03"><path d="M425,7.22c-25.66,0-52.13-3-76.64-7.22L425,250.73,501.58.18C477.31,4.3,451,7.22,425,7.22ZM155,339.07,195.28,49.76,0,355.16S73,325.16,155,339.07ZM563,130.28,477.87,420.19a322.36,322.36,0,0,0,56.9-14.67c24.7-9,42.16-18.57,58.59-27.77l-28-247.47Zm91.73-80.52,40.33,289.31c81.93-13.91,155,16.09,155,16.09ZM426,425h-1S425.37,425,426,425Zm-1,0h-1C424.63,425,425,425,425,425ZM284.59,130.28,256.64,377.75c16.43,9.2,33.89,18.76,58.59,27.77a322.36,322.36,0,0,0,56.9,14.67L287,130.28Z" style="fill:#ff5f00"/></svg>